<?xml version="1.0" encoding="UTF-8" standalone="no"?>
<!-- Created with Inkscape (http://www.inkscape.org/) -->

<svg
   version="1.1"
   id="svg1"
   width="576"
   height="240"
   viewBox="0 0 576 240"
   sodipodi:docname="EALlogoZM.svg"
   inkscape:version="1.3.2 (091e20e, 2023-11-25, custom)"
   xmlns:inkscape="http://www.inkscape.org/namespaces/inkscape"
   xmlns:sodipodi="http://sodipodi.sourceforge.net/DTD/sodipodi-0.dtd"
   xmlns="http://www.w3.org/2000/svg"
   xmlns:svg="http://www.w3.org/2000/svg">
  <defs
     id="defs1">
    <clipPath
       clipPathUnits="userSpaceOnUse"
       id="clipPath3">
      <path
         d="M 0,4.5776e-5 H 432 V 180.00005 H 0 Z"
         clip-rule="evenodd"
         id="path3" />
    </clipPath>
  </defs>
  <sodipodi:namedview
     id="namedview1"
     pagecolor="#ffffff"
     bordercolor="#000000"
     borderopacity="0.25"
     inkscape:showpageshadow="2"
     inkscape:pageopacity="0.0"
     inkscape:pagecheckerboard="0"
     inkscape:deskcolor="#d1d1d1"
     inkscape:zoom="3.4618056"
     inkscape:cx="288"
     inkscape:cy="120.02407"
     inkscape:window-width="2560"
     inkscape:window-height="1361"
     inkscape:window-x="2551"
     inkscape:window-y="-9"
     inkscape:window-maximized="1"
     inkscape:current-layer="g1">
    <inkscape:page
       x="0"
       y="0"
       inkscape:label="1"
       id="page1"
       width="576"
       height="240"
       margin="0"
       bleed="0" />
  </sodipodi:namedview>
  <g
     id="g1"
     inkscape:groupmode="layer"
     inkscape:label="1">
    <g
       id="g2">
      <path
         id="path2"
         d="M 0,1.5259e-5 H 432 V 180.00002 H 0 Z"
         style="fill:#ffffff;fill-opacity:1;fill-rule:evenodd;stroke:none"
         transform="matrix(1.3333333,0,0,-1.3333333,0,240)"
         clip-path="url(#clipPath3)" />
    </g>
    <g
       id="g3">
      <path
         id="path4"
         d="m 313.31,152.48 c 4.9,-1.76 8.92,-3.3 12.07,-4.61 3.14,-1.3 5.66,-2.43 7.55,-3.38 1.88,-0.96 3.23,-1.8 4.05,-2.53 0.82,-0.73 1.23,-1.37 1.23,-1.93 0,-28.99 0,-57.983 0,-86.976 25.62,5.985 51.15,12.363 76.78,18.348 1.26,0.294 2.36,0.489 3.3,0.573 0.94,0.083 1.73,0.038 2.36,-0.115 0.63,-0.152 1.09,-0.452 1.41,-0.873 0.24,-0.315 0.38,-0.723 0.44,-1.217 0.01,-0.175 0.02,-0.35 0.03,-0.525 0,0 0,0 0,0 -0.01,-0.181 -0.02,-0.362 -0.03,-0.542 -0.06,-0.53 -0.2,-1.024 -0.44,-1.481 -0.32,-0.612 -0.78,-1.198 -1.41,-1.755 -0.63,-0.559 -1.42,-1.088 -2.36,-1.58 -0.94,-0.493 -2.04,-0.969 -3.3,-1.421 C 377.7,49.089 340.41,35.712 303.12,22.335 c -4.15,-1.488 -7.64,-2.061 -10.47,-1.636 -2.83,0.426 -4.25,2.317 -4.25,5.574 0,43.491 0,86.977 0,130.467 0,0.75 0.41,1.27 1.23,1.58 0.82,0.3 2.17,0.31 4.06,0 1.88,-0.3 4.43,-0.92 7.64,-1.86 3.21,-0.94 7.2,-2.27 11.98,-3.98 z"
         style="fill:#ed7d31;fill-opacity:1;fill-rule:evenodd;stroke:#006f53;stroke-width:0.84;stroke-linecap:butt;stroke-linejoin:round;stroke-miterlimit:10;stroke-dasharray:none;stroke-opacity:1"
         transform="matrix(1.3333333,0,0,-1.3333333,0,240)" />
    </g>
    <g
       id="g4">
      <path
         id="path5"
         d="M 213.25,136.71 191.89,72.515 h 42.84 l -21.36,64.195 z m 0.47,29.53 c 4.59,0 8.25,-0.06 10.97,-0.18 2.73,-0.11 4.85,-0.38 6.36,-0.81 1.52,-0.43 2.61,-1.07 3.27,-1.93 0.66,-0.85 1.23,-2.02 1.69,-3.5 L 282.7,25.944 c 0.94,-2.801 1.52,-5.019 1.75,-6.653 0.24,-1.634 -0.08,-2.86 -0.93,-3.677 -0.86,-0.817 -2.38,-1.323 -4.55,-1.517 -2.18,-0.195 -5.18,-0.292 -8.99,-0.292 -3.97,0 -7.06,0.058 -9.28,0.175 -2.22,0.117 -3.91,0.35 -5.08,0.701 -1.16,0.35 -1.98,0.836 -2.45,1.459 -0.47,0.622 -0.85,1.439 -1.17,2.451 l -10.15,30.346 h -56.73 l -9.57,-29.529 c -0.31,-1.09 -0.72,-2.004 -1.22,-2.743 -0.51,-0.739 -1.32,-1.323 -2.45,-1.751 -1.13,-0.428 -2.73,-0.72 -4.79,-0.875 -2.06,-0.156 -4.76,-0.234 -8.11,-0.234 -3.58,0 -6.38,0.117 -8.4,0.35 -2.03,0.234 -3.43,0.798 -4.21,1.693 -0.77,0.895 -1.05,2.159 -0.81,3.793 0.23,1.634 0.81,3.813 1.75,6.536 l 46.57,133.993 c 0.47,1.32 1.01,2.39 1.63,3.21 0.62,0.82 1.62,1.44 2.98,1.87 1.36,0.43 3.25,0.7 5.66,0.81 2.41,0.12 5.6,0.18 9.57,0.18 z"
         style="fill:#ed7d31;fill-opacity:1;fill-rule:evenodd;stroke:#006f53;stroke-width:0.84;stroke-linecap:butt;stroke-linejoin:round;stroke-miterlimit:10;stroke-dasharray:none;stroke-opacity:1"
         transform="matrix(1.3333333,0,0,-1.3333333,0,240)" />
    </g>
    <g
       id="g5">
      <path
         id="path6"
         d="m 21.903,118.78 c 37.657,13.33 75.313,26.65 112.967,39.97 1.05,0.37 1.98,0.52 2.8,0.45 0.82,-0.07 1.52,-0.46 2.1,-1.16 0.59,-0.71 1.02,-1.73 1.31,-3.05 0.3,-1.33 0.44,-3.09 0.44,-5.28 0,-2.05 -0.14,-3.82 -0.44,-5.32 -0.3,-1.5 -0.71,-2.77 -1.31,-3.78 -0.59,-1.01 -1.27,-1.83 -2.1,-2.41 -0.82,-0.58 -1.75,-1.02 -2.8,-1.27 -26.96,-6.36 -53.828,-13.11 -80.79,-19.48 0,-6.5 0,-13 0,-19.502 22.796,1.5 45.581,3.172 68.38,4.672 1.05,0.07 2,-0.06 2.88,-0.36 0.88,-0.29 1.59,-0.85 2.19,-1.58 0.6,-0.737 1,-1.795 1.31,-3.112 0.31,-1.32 0.44,-2.948 0.44,-4.867 0,-1.988 -0.13,-3.637 -0.44,-4.931 -0.31,-1.29 -0.71,-2.342 -1.31,-3.09 -0.61,-0.745 -1.31,-1.31 -2.19,-1.596 -0.88,-0.286 -1.83,-0.426 -2.88,-0.384 -22.797,0.911 -45.586,1.931 -68.38,2.842 0,-7.51 0,-15.019 0,-22.529 27.195,-6.418 54.3,-13.232 81.49,-19.65 1.05,-0.248 2.01,-0.692 2.89,-1.289 0.88,-0.598 1.59,-1.431 2.18,-2.442 0.6,-1.015 1.02,-2.288 1.32,-3.79 0.22,-1.13 0.35,-2.437 0.41,-3.916 0,-0.513 0.01,-1.025 0.02,-1.537 0,-10e-4 0,-0.002 0,-0.002 -0.01,-0.507 -0.02,-1.014 -0.02,-1.521 -0.06,-1.447 -0.19,-2.672 -0.41,-3.672 -0.3,-1.33 -0.73,-2.337 -1.32,-3.01 -0.58,-0.671 -1.31,-1.053 -2.18,-1.142 -0.88,-0.089 -1.84,0.056 -2.89,0.428 -37.887,13.403 -75.777,26.807 -113.667,40.211 -3.847,1.361 -7.073,2.785 -9.705,4.191 -2.6172,1.397 -3.9349,2.603 -3.9349,3.678 0,13.789 0,27.577 0,41.36 0,1.08 1.3177,2.29 3.9349,3.68 2.632,1.41 5.858,2.83 9.705,4.19 z"
         style="fill:#ed7d31;fill-opacity:1;fill-rule:evenodd;stroke:#006f53;stroke-width:0.84;stroke-linecap:butt;stroke-linejoin:round;stroke-miterlimit:10;stroke-dasharray:none;stroke-opacity:1"
         transform="matrix(1.3333333,0,0,-1.3333333,0,240)" />
    </g>
  </g>
</svg>
